<svg xmlns="http://www.w3.org/2000/svg" xmlns:xlink="http://www.w3.org/1999/xlink" contentStyleType="text/css" data-diagram-type="CLASS" height="563px" preserveAspectRatio="none" style="width:838px;height:563px;background:#FFFFFF;" version="1.1" viewBox="0 0 838 563" width="838px" zoomAndPan="magnify"><title>The Gaslighting FIFO Architecture</title><defs/><g><rect fill="#FFFFCC" height="26.6406" rx="2.5" ry="2.5" style="stroke:#FFDD88;stroke-width:3;" width="827.2734" x="5" y="5"/><text fill="#000000" font-family="monospace" font-size="10" lengthAdjust="spacing" textLength="355.21" x="10" y="20">Please&#160;use&#160;'!option&#160;handwritten&#160;true'&#160;to&#160;enable&#160;handwritten</text><g class="title" data-source-line="16"><text fill="#000000" font-family="'Comic Sans MS'" font-size="14" font-weight="bold" lengthAdjust="spacing" textLength="268.5566" x="270.3584" y="59.6357">The Gaslighting FIFO Architecture</text></g><!--cluster Chaos Domain (The Lie)--><g class="cluster" data-entity="Chaos Domain .The Lie." data-source-line="18" data-uid="ent0002" id="cluster_Chaos Domain .The Lie."><path d="M8.5,159.9375 L8.5,160.498 L18.4119,158.8326 L28.3237,160.4529 L38.2356,161.0033 L48.1474,158.0351 L58.0593,159.7303 L67.9711,158.8002 L77.883,158.9148 L87.7948,159.7557 L97.7067,158.0938 L107.6185,161.4139 L117.5304,158.2568 L127.4422,159.4101 L137.3541,161.0894 L147.2659,159.7088 L157.1778,160.1195 L167.0896,159.8523 L177.0015,160.4136 L186.9133,160.5752 L196.8252,159.9375 L199.3252,162.4375 L199.816,162.6111 L201.2876,166.5957 L202.6944,170.5575 L203.7386,174.3911 L205.3137,178.4124 L206.3252,182.2344 L206.3252,184.107 L215.7602,180.3112 L225.1951,184.0437 L234.6301,181.4437 L244.065,183.6579 L253.5,182.2344 L256,184.7344 L254.6799,184.7344 L255.8173,194.7254 L257.9776,204.7165 L255.87,214.7076 L256.2808,224.6986 L256.903,234.6897 L257.11,244.6808 L255.9896,254.6719 L256.7659,264.6629 L254.4736,274.654 L256.7584,284.6451 L257.4619,294.6361 L257.1854,304.6272 L257.6347,314.6183 L254.7118,324.6093 L254.2608,334.6004 L254.3429,344.5915 L255.843,354.5825 L255.4759,364.5736 L257.8171,374.5647 L255.5342,384.5557 L255.0852,394.5468 L256.6087,404.5379 L254.2218,414.529 L254.6157,424.52 L257.7305,434.5111 L257.1618,444.5022 L257.9586,454.4932 L255.1419,464.4843 L256.8512,474.4754 L257.5745,484.4664 L256,494.4575 L253.5,496.9575 L253.5,495.6978 L243.7,496.7019 L233.9,497.2935 L224.1,498.6955 L214.3,496.9463 L204.5,498.191 L194.7,495.4807 L184.9,495.1515 L175.1,498.3005 L165.3,495.0457 L155.5,498.3147 L145.7,497.5085 L135.9,496.2431 L126.1,496.0141 L116.3,498.1809 L106.5,496.1593 L96.7,498.5358 L86.9,495.4835 L77.1,498.604 L67.3,498.249 L57.5,497.6107 L47.7,497.0834 L37.9,498.8951 L28.1,498.5937 L18.3,497.4088 L8.5,496.9575 L6,494.4575 L6.7152,494.4575 L5.6526,484.3963 L7.9105,474.3351 L6.413,464.2739 L6.4602,454.2127 L4.3777,444.1514 L4.9194,434.0902 L7.4153,424.029 L7.146,413.9678 L5.8855,403.9066 L5.1409,393.8454 L5.4162,383.7842 L4.1702,373.723 L7.106,363.6617 L7.9722,353.6005 L7.4037,343.5393 L7.8532,333.4781 L5.6354,323.4169 L6.2326,313.3557 L4.9664,303.2945 L6.7574,293.2333 L6.658,283.172 L7.473,273.1108 L5.3876,263.0496 L5.6416,252.9884 L7.1826,242.9272 L7.5129,232.866 L4.6332,222.8048 L5.483,212.7436 L6.398,202.6823 L4.3711,192.6211 L6.9424,182.5599 L6.688,172.4987 L6,162.4375 L8.5,159.9375" fill="none" style="stroke:#000000;stroke-width:1.5;"/><path d="M6,182.2344 L6,182.5146 L16.0163,181.6819 L26.0325,182.4921 L36.0488,182.7673 L46.065,181.2832 L56.0813,182.1308 L66.0976,181.6657 L76.1138,181.723 L86.1301,182.1435 L96.1463,181.3125 L106.1626,182.9726 L116.1789,181.394 L126.1951,181.9707 L136.2114,182.8103 L146.2276,182.12 L156.2439,182.3254 L166.2602,182.1918 L176.2764,182.4724 L186.2927,182.5532 L196.3089,183.0153 L206.3252,182.2344" fill="none" style="stroke:#000000;stroke-width:1.5;"/><text fill="#000000" font-family="'Comic Sans MS'" font-size="14" font-weight="bold" lengthAdjust="spacing" textLength="187.3252" x="10" y="174.9326">Chaos Domain (The Lie)</text></g><!--cluster Logic Domain (The Enforcer)--><g class="cluster" data-entity="Logic Domain .The Enforcer." data-source-line="32" data-uid="ent0007" id="cluster_Logic Domain .The Enforcer."><path d="M358.5,159.9375 L358.5,160.498 L368.3248,158.8326 L378.1496,160.4529 L387.9744,161.0033 L397.7993,158.0351 L407.6241,159.7303 L417.4489,158.8002 L427.2737,158.9148 L437.0985,159.7557 L446.9233,158.0938 L456.7481,161.4139 L466.5729,158.2568 L476.3978,159.4101 L486.2226,161.0894 L496.0474,159.7088 L505.8722,160.1195 L515.697,159.8523 L525.5218,160.4136 L535.3466,160.5752 L545.1715,161.4993 L554.9963,161.727 L564.8211,161.7489 L574.6459,160.6165 L584.4707,159.9375 L586.9707,162.4375 L587.3592,162.5749 L588.9592,166.605 L589.1663,170.1425 L591.7393,174.5167 L592.3222,178.1871 L593.9707,182.2344 L593.9707,182.7089 L597.8766,181.7944 L601.7824,182.1735 L605.6883,182.8936 L609.5941,182.1911 L613.5,182.2344 L616,184.7344 L616.2808,184.7344 L616.903,194.6469 L617.11,204.5595 L615.9896,214.472 L616.7659,224.3846 L614.4736,234.2971 L616.7584,244.2097 L617.4619,254.1222 L617.1854,264.0348 L617.6347,273.9473 L614.7118,283.8599 L614.2608,293.7724 L614.3429,303.685 L616,313.5975 L613.5,316.0975 L613.5,315.9405 L603.6923,315.5734 L593.8846,317.9146 L584.0769,315.6317 L574.2692,315.1827 L564.4615,316.7062 L554.6538,314.3193 L544.8462,314.7132 L535.0385,317.828 L525.2308,317.2593 L515.4231,318.0561 L505.6154,315.2394 L495.8077,316.9487 L486,317.672 L476.1923,314.8378 L466.3846,315.8419 L456.5769,316.4335 L446.7692,317.8355 L436.9615,316.0863 L427.1538,317.331 L417.3462,314.6207 L407.5385,314.2915 L397.7308,317.4405 L387.9231,314.1857 L378.1154,317.4547 L368.3077,316.6485 L358.5,316.0975 L356,313.5975 L355.2856,313.5975 L355.0566,303.5202 L357.2234,293.4428 L355.2018,283.3655 L357.5783,273.2882 L354.526,263.2108 L357.6465,253.1335 L357.2915,243.0562 L356.6532,232.9788 L356.1259,222.9015 L357.9376,212.8242 L357.6362,202.7468 L356.4513,192.6695 L356.7152,182.5922 L355.6526,172.5148 L356,162.4375 L358.5,159.9375" fill="none" style="stroke:#000000;stroke-width:1.5;"/><path d="M356,182.2344 L356,182.5146 L365.9154,181.6819 L375.8309,182.4921 L385.7463,182.7673 L395.6618,181.2832 L405.5772,182.1308 L415.4927,181.6657 L425.4081,181.723 L435.3236,182.1435 L445.239,181.3125 L455.1545,182.9726 L465.0699,181.394 L474.9854,181.9707 L484.9008,182.8103 L494.8162,182.12 L504.7317,182.3254 L514.6471,182.1918 L524.5626,182.4724 L534.478,182.5532 L544.3935,183.0153 L554.3089,183.1291 L564.2244,183.1401 L574.1398,182.5739 L584.0553,182.8525 L593.9707,182.2344" fill="none" style="stroke:#000000;stroke-width:1.5;"/><text fill="#000000" font-family="'Comic Sans MS'" font-size="14" font-weight="bold" lengthAdjust="spacing" textLength="224.9707" x="360" y="174.9326">Logic Domain (The Enforcer)</text></g><!--cluster Physical Reality (The Truth)--><g class="cluster" data-entity="Physical Reality .The Truth." data-source-line="41" data-uid="ent0009" id="cluster_Physical Reality .The Truth."><path d="M501.5,365.0975 L501.5,365.658 L511.5309,363.9926 L521.5618,365.6129 L531.5927,366.1633 L541.6236,363.1951 L551.6545,364.8903 L561.6854,363.9602 L571.7163,364.0748 L581.7472,364.9157 L591.7781,363.2538 L601.8089,366.5739 L611.8398,363.4168 L621.8707,364.5701 L631.9016,366.2494 L641.9325,364.8688 L651.9634,365.2795 L661.9943,365.0123 L672.0252,365.5736 L682.0561,365.7352 L692.087,366.6593 L702.1179,366.887 L712.1488,366.9089 L722.1797,365.0975 L724.6797,367.5975 L724.8931,367.673 L726.4682,371.6942 L728.0682,375.7243 L728.2753,379.2619 L730.8483,383.6361 L731.6797,387.3944 L731.6797,387.1308 L731.6438,387.8689 L731.6078,386.9544 L731.5719,387.3335 L731.5359,388.0536 L731.5,387.3944 L734,389.8944 L733.87,389.8944 L734.2808,399.5713 L734.903,409.2481 L735.11,418.925 L733.9896,428.6019 L734.7659,438.2788 L732.4736,447.9556 L734.7584,457.6325 L735.4619,467.3094 L735.1854,476.9863 L735.6347,486.6631 L732.7118,496.34 L732.2608,506.0169 L732.3429,515.6938 L733.843,525.3706 L734,535.0475 L731.5,537.5475 L731.5,537.0234 L721.5,539.3646 L711.5,537.0817 L701.5,536.6327 L691.5,538.1562 L681.5,535.7693 L671.5,536.1632 L661.5,539.278 L651.5,538.7093 L641.5,539.5061 L631.5,536.6894 L621.5,538.3987 L611.5,539.122 L601.5,536.2878 L591.5,537.2919 L581.5,537.8835 L571.5,539.2855 L561.5,537.5363 L551.5,538.781 L541.5,536.0707 L531.5,535.7415 L521.5,538.8905 L511.5,535.6357 L501.5,537.5475 L499,535.0475 L500.3572,535.0475 L499.551,525.1975 L498.2856,515.3475 L498.0566,505.4975 L500.2234,495.6475 L498.2018,485.7975 L500.5783,475.9475 L497.526,466.0975 L500.6465,456.2475 L500.2915,446.3975 L499.6532,436.5475 L499.1259,426.6975 L500.9376,416.8475 L500.6362,406.9975 L499.4513,397.1475 L499.7152,387.2975 L498.6526,377.4475 L499,367.5975 L501.5,365.0975" fill="none" style="stroke:#000000;stroke-width:1.5;"/><path d="M499,387.3944 L499,387.6746 L509.1165,386.8419 L519.233,387.6521 L529.3495,387.9273 L539.466,386.4432 L549.5825,387.2908 L559.699,386.8257 L569.8156,386.883 L579.9321,387.3035 L590.0486,386.4725 L600.1651,388.1326 L610.2816,386.554 L620.3981,387.1307 L630.5146,387.9703 L640.6311,387.28 L650.7476,387.4854 L660.8641,387.3518 L670.9806,387.6324 L681.0971,387.7132 L691.2137,388.1753 L701.3302,388.2891 L711.4467,388.3001 L721.5632,387.7339 L731.6797,387.3944" fill="none" style="stroke:#000000;stroke-width:1.5;"/><text fill="#000000" font-family="'Comic Sans MS'" font-size="14" font-weight="bold" lengthAdjust="spacing" textLength="219.6797" x="503" y="380.0926">Physical Reality (The Truth)</text></g><!--class LFSR--><g class="entity" data-entity="LFSR" data-source-line="19" data-uid="ent0003" id="entity_LFSR"><polygon fill="#FFCDD2" points="26.15,194.9375,26.15,195.1477,36.136,194.5232,46.122,195.1308,56.108,195.3372,66.094,194.2241,76.08,194.8598,86.066,194.511,96.052,194.554,106.038,194.8693,116.024,194.2461,126.01,195.4911,135.996,194.3072,145.982,194.7397,155.968,195.3694,165.954,194.8517,175.94,195.0057,185.926,194.9056,195.912,195.116,205.898,195.1766,215.884,195.5232,225.8701,195.6086,235.8561,194.9375,235.9427,195.1467,236.2421,195.1624,236.6223,195.3732,237.0063,195.5931,237.1783,195.3012,237.6238,195.6697,237.8328,195.7563,237.679,195.9855,238.0811,196.4449,237.9107,196.6672,238.1885,197.0752,238.3561,197.4375,239.0977,197.4375,238.3073,207.4531,238.4614,217.4688,238.6947,227.4844,238.7723,237.5,238.3521,247.5156,238.6433,257.5313,237.7836,267.5469,238.6404,277.5625,238.9042,287.5781,238.3561,297.5938,238.493,297.6505,238.3984,298.0255,237.9144,298.2392,237.7159,298.5712,237.5789,298.9287,237.6238,299.3615,237.6163,299.3434,237.2452,299.4474,237.0036,299.8643,236.5409,299.7471,236.1658,299.8417,235.8561,300.0938,235.8561,300.322,225.8701,299.4269,215.884,299.5746,205.898,300.7427,195.912,300.5294,185.926,300.8282,175.94,299.772,165.954,300.4129,155.968,300.6842,145.982,299.6213,135.996,299.9979,126.01,300.2197,116.024,300.7455,106.038,300.0896,96.052,300.5563,86.066,299.54,76.08,299.4165,66.094,300.5974,56.108,299.3768,46.122,300.6027,36.136,300.3004,26.15,300.0938,26.1158,300.0112,25.7513,299.8384,25.5014,299.9421,25.0512,299.5622,24.8113,299.6902,24.3822,299.3615,24.212,299.291,24.4259,299.0867,24.2385,298.7162,24.0183,298.3321,23.811,297.9533,23.65,297.5938,24.3766,297.5938,24.2636,287.5781,23.8193,277.5625,23.9182,267.5469,23.5197,257.5313,24.3665,247.5156,23.8049,237.5,23.8226,227.4844,23.0416,217.4688,23.2448,207.4531,23.65,197.4375,23.8134,197.5052,23.9288,197.1388,23.9297,196.7249,23.9901,196.3357,24.1684,195.9954,24.3822,195.6697,24.2947,195.4584,24.7887,195.651,25.1837,195.6046,25.51,195.3925,25.8851,195.298,26.15,194.9375" style="stroke:#D32F2F;stroke-width:0.5;"/><polygon fill="#ADD1B2" points="94.3646,217.7459,92.7522,219.9491,90.845,223.176,88.1174,225.3507,85.2512,226.5399,82.9658,226.6431,80.0285,225.1559,77.257,224.1842,75.1533,222.2115,74.0499,219.9531,73.3955,218.1548,72.7544,215.806,71.7138,213.7848,72.5134,211.8113,73.214,209.6495,75.8431,207.9398,77.6928,205.7214,79.9822,204.9848,82.7039,204.3504,86.1942,204.7273,88.1059,205.6288,90.3285,206.0375,93.031,208.8063,93.9731,211.7293,94.3824,213.7237,93.9188,217.0102" style="stroke:#181818;stroke-width:1;"/><path d="M86.2726,220.7109 Q85.6944,221.0078 85.0538,221.1484 Q84.4132,221.3047 83.7101,221.3047 Q81.2101,221.3047 79.8819,219.6641 Q78.5694,218.0078 78.5694,214.8828 Q78.5694,211.7578 79.8819,210.1016 Q81.2101,208.4453 83.7101,208.4453 Q84.4132,208.4453 85.0538,208.6016 Q85.7101,208.7578 86.2726,209.0547 L86.2726,211.7734 Q85.6476,211.1953 85.0538,210.9297 Q84.4601,210.6484 83.8351,210.6484 Q82.4913,210.6484 81.8038,211.7266 Q81.1163,212.7891 81.1163,214.8828 Q81.1163,216.9766 81.8038,218.0547 Q82.4913,219.1172 83.8351,219.1172 Q84.4601,219.1172 85.0538,218.8516 Q85.6476,218.5703 86.2726,217.9922 L86.2726,220.7109 Z " fill="#000000"/><text fill="#000000" font-family="Comic Sans MS" font-size="12" font-style="italic" lengthAdjust="spacing" textLength="51.6152" x="121.4454" y="211.0762">&#171;Chaos&#187;</text><text fill="#000000" font-family="'Comic Sans MS'" font-size="14" lengthAdjust="spacing" textLength="86.8984" x="103.8038" y="226.9014">LFSR Engine</text><path d="M24.65,235.2031 L24.65,235.4834 L34.7789,234.6507 L44.9077,235.4608 L55.0366,235.736 L65.1654,234.2519 L75.2943,235.0995 L85.4232,234.6345 L95.552,234.6918 L105.6809,235.1122 L115.8097,234.2813 L125.9386,235.9413 L136.0675,234.3628 L146.1963,234.9394 L156.3252,235.7791 L166.454,235.0888 L176.5829,235.2941 L186.7118,235.1605 L196.8406,235.4412 L206.9695,235.522 L217.0983,235.984 L227.2272,236.0979 L237.3561,235.2031" fill="#FFCDD2" style="stroke:#D32F2F;stroke-width:0.5;"/><g data-visibility-modifier="PUBLIC_FIELD"><polygon fill="none" points="37.6666,249.5813,37.2268,250.1821,36.7067,251.0622,35.9628,251.6553,35.1811,251.9796,34.5578,252.0078,33.7567,251.6022,33.0009,251.3372,32.4271,250.7992,32.1262,250.1832,31.9477,249.6928,31.7729,249.0522,31.4891,248.501,31.7072,247.9627,31.8982,247.3732,32.6153,246.9069,33.1197,246.3019,33.7441,246.101,34.4864,245.9279,35.4383,246.0307,35.9597,246.2766,36.5658,246.3881,37.3029,247.1432,37.5598,247.9404,37.6714,248.4843,37.545,249.3806" style="stroke:#038048;stroke-width:1;"/></g><text fill="#000000" font-family="'Comic Sans MS'" font-size="14" lengthAdjust="spacing" textLength="135.8096" x="43.65" y="252.1982">lfsr_reg : reg [10:0]</text><path d="M24.65,259.5 L24.65,259.7802 L34.7789,258.9476 L44.9077,259.7577 L55.0366,260.0329 L65.1654,258.5488 L75.2943,259.3964 L85.4232,258.9313 L95.552,258.9887 L105.6809,259.4091 L115.8097,258.5782 L125.9386,260.2382 L136.0675,258.6596 L146.1963,259.2363 L156.3252,260.0759 L166.454,259.3856 L176.5829,259.591 L186.7118,259.4574 L196.8406,259.738 L206.9695,259.8188 L217.0983,260.2809 L227.2272,260.3947 L237.3561,259.5" fill="#FFCDD2" style="stroke:#D32F2F;stroke-width:1;"/><text fill="#000000" font-family="'Comic Sans MS'" font-size="14" lengthAdjust="spacing" textLength="120.2168" x="29.65" y="276.4951">Generates Chaos</text><text fill="#000000" font-family="'Comic Sans MS'" font-size="14" lengthAdjust="spacing" textLength="202.7061" x="29.65" y="292.792">Polynomial: x^11 + x^2 + 1</text></g><g class="entity" data-entity="GMN4" data-source-line="27" data-uid="ent0005" id="entity_GMN4"><path d="M21.7,440.6875 L21.8868,440.6875 L21.3317,448.7406 L21.8718,456.7938 L22.0553,464.8469 L21.0659,472.9 L21.7,480.9531 L21.7,480.9531 L21.7,480.7459 L31.6365,479.8158 L41.573,479.9305 L51.5094,480.7714 L61.4459,479.1095 L71.3824,482.4295 L81.3189,479.2724 L91.2554,480.4257 L101.1918,482.105 L111.1283,480.7244 L121.0648,481.1351 L131.0013,480.8679 L140.9377,481.4292 L150.8742,481.5908 L160.8107,482.515 L170.7472,482.7426 L180.6837,482.7645 L190.6201,481.6321 L200.5566,482.1894 L210.4931,482.8257 L220.4296,479.03 L230.3661,482.7625 L240.3025,480.9531 L240.3025,480.9531 L240.039,480.9531 L240.777,474.9 L239.8625,468.8469 L240.2417,462.7938 L240.9617,456.7406 L240.3025,450.6875 L240.2719,450.6569 L238.3687,448.7537 L236.5154,446.9003 L234.5642,444.9491 L232.3001,442.685 L230.3025,440.6875 L230.3025,441.4534 L220.7723,439.1611 L211.242,441.4459 L201.7118,442.1494 L192.1815,441.8729 L182.6513,442.3222 L173.121,439.3993 L163.5908,438.9483 L154.0605,439.0304 L144.5303,440.5305 L135,440.6875 L134.4761,440.6726 L136.5306,430.7243 L133.963,420.6442 L133.2284,410.6164 L134.4656,400.6449 L131.7939,390.5618 L131.9019,380.558 L134.7298,370.6318 L133.8756,360.6006 L134.3864,350.6084 L131.2851,340.513 L132.708,330.5468 L133.1452,320.5524 L130.0265,310.4566 L131,300.4775 L130.7445,300.4702 L131.0501,310.5021 L132.1659,320.5571 L130.1317,330.5222 L131.0902,340.5727 L128.0953,350.5104 L127.4804,360.516 L130.3424,370.6208 L126.8032,380.543 L129.7853,390.6512 L128.6936,400.6432 L127.143,410.6221 L126.6284,420.6306 L128.5086,430.7074 L127,440.6875 L127,439.8893 L117.4273,442.2658 L107.8545,439.2135 L98.2818,442.334 L88.7091,441.979 L79.1364,441.3407 L69.5636,440.8134 L59.9909,442.6251 L50.4182,442.3237 L40.8455,441.1388 L31.2727,441.4027 L21.7,440.6875 L21.7,440.6875" fill="#FEFFDD" style="stroke:#181818;stroke-width:0.5;"/><path d="M230.3025,440.6875 L230.4894,440.6875 L229.9343,442.6875 L230.4743,444.6875 L230.6578,446.6875 L229.6684,448.6875 L230.3025,450.6875 L230.3025,450.6184 L232.3025,450.3084 L234.3025,450.3466 L236.3025,450.6269 L238.3025,450.0729 L240.3025,450.6875 L240.6505,451.0355 L237.9064,448.2913 L236.1782,446.5632 L234.574,444.959 L232.2486,442.6336 L230.3025,440.6875" fill="#FEFFDD" style="stroke:#181818;stroke-width:0.5;"/><text fill="#000000" font-family="'Comic Sans MS'" font-size="13" lengthAdjust="spacing" textLength="128.9019" x="27.7" y="457.7544">The Source of Truth</text><text fill="#000000" font-family="'Comic Sans MS'" font-size="13" lengthAdjust="spacing" textLength="197.6025" x="27.7" y="472.8872">Updates on every R/W trigger.</text></g><!--class Logic--><g class="entity" data-entity="Logic" data-source-line="33" data-uid="ent0008" id="entity_Logic"><polygon fill="#E1BEE7" points="374.6,194.9375,374.6,195.1477,384.7268,194.5232,394.8536,195.1308,404.9805,195.3372,415.1073,194.2241,425.2341,194.8598,435.3609,194.511,445.4877,194.554,455.6146,194.8693,465.7414,194.2461,475.8682,195.4911,485.995,194.3072,496.1218,194.7397,506.2487,195.3694,516.3755,194.8517,526.5023,195.0057,536.6291,194.9056,546.7559,195.116,556.8828,195.1766,567.0096,195.5232,577.1364,195.6086,587.2632,195.6168,597.39,194.9375,597.4225,195.0159,597.8027,195.2267,598.1867,195.4467,598.3587,195.1547,598.8908,195.7322,599.1578,195.6697,599.0665,195.6319,599.4686,196.0914,599.2983,196.3137,599.5761,196.7217,599.972,197.1785,599.89,197.4375,599.8413,197.4375,599.9953,207.4531,600.2287,217.4688,600.3063,227.4844,599.8861,237.5,600.1773,247.5156,599.3176,257.5313,600.1744,267.5469,600.4382,277.5625,600.3346,287.5781,599.89,297.5938,600.0788,297.6719,599.5948,297.8857,599.3963,298.2177,599.2593,298.5751,599.2861,299.0005,599.1578,299.3615,599.1327,299.301,598.8912,299.7178,598.4284,299.6006,598.0534,299.6952,597.7727,300.0176,597.39,300.0938,597.39,299.4269,587.2632,299.5746,577.1364,300.7427,567.0096,300.5294,556.8828,300.8282,546.7559,299.772,536.6291,300.4129,526.5023,300.6842,516.3755,299.6213,506.2487,299.9979,496.1218,300.2197,485.995,300.7455,475.8682,300.0896,465.7414,300.5563,455.6146,299.54,445.4877,299.4165,435.3609,300.5974,425.2341,299.3768,415.1073,300.6027,404.9805,300.3004,394.8536,299.8258,384.7268,299.74,374.6,300.0938,374.6585,300.235,374.2083,299.8551,373.9684,299.9831,373.4688,299.4842,373.2645,299.6981,372.8322,299.3615,372.9814,299.4233,372.7612,299.0392,372.5539,298.6604,372.6167,298.3935,372.4354,298.0256,372.1,297.5938,372.2693,297.5938,372.3682,287.5781,371.9697,277.5625,372.8165,267.5469,372.2549,257.5313,372.2726,247.5156,371.4916,237.5,371.6948,227.4844,372.6307,217.4688,372.5298,207.4531,372.1,197.4375,372.0868,197.432,372.1472,197.0429,372.3255,196.7025,372.328,196.2893,372.8135,196.0762,372.8322,195.6697,372.9266,195.8975,373.2529,195.6854,373.628,195.5909,373.8755,195.1883,374.2576,195.1108,374.6,194.9375" style="stroke:#7B1FA2;stroke-width:0.5;"/><polygon fill="#ADD1B2" points="432.4616,217.7459,430.8491,219.9491,428.942,223.176,426.2144,225.3507,423.3482,226.5399,421.0628,226.6431,418.1255,225.1559,415.3539,224.1842,413.2503,222.2115,412.1468,219.9531,411.4925,218.1548,410.8514,215.806,409.8108,213.7848,410.6104,211.8113,411.311,209.6495,413.9401,207.9398,415.7897,205.7214,418.0792,204.9848,420.8009,204.3504,424.2912,204.7273,426.2029,205.6288,428.4255,206.0375,431.128,208.8063,432.07,211.7293,432.4794,213.7237,432.0157,217.0102" style="stroke:#181818;stroke-width:1;"/><path d="M424.3695,220.7109 Q423.7914,221.0078 423.1508,221.1484 Q422.5102,221.3047 421.807,221.3047 Q419.307,221.3047 417.9789,219.6641 Q416.6664,218.0078 416.6664,214.8828 Q416.6664,211.7578 417.9789,210.1016 Q419.307,208.4453 421.807,208.4453 Q422.5102,208.4453 423.1508,208.6016 Q423.807,208.7578 424.3695,209.0547 L424.3695,211.7734 Q423.7445,211.1953 423.1508,210.9297 Q422.557,210.6484 421.932,210.6484 Q420.5883,210.6484 419.9008,211.7266 Q419.2133,212.7891 419.2133,214.8828 Q419.2133,216.9766 419.9008,218.0547 Q420.5883,219.1172 421.932,219.1172 Q422.557,219.1172 423.1508,218.8516 Q423.7445,218.5703 424.3695,217.9922 L424.3695,220.7109 Z " fill="#000000"/><text fill="#000000" font-family="Comic Sans MS" font-size="12" font-style="italic" lengthAdjust="spacing" textLength="46.2598" x="479.1151" y="211.0762">&#171;Logic&#187;</text><text fill="#000000" font-family="'Comic Sans MS'" font-size="14" lengthAdjust="spacing" textLength="120.6885" x="441.9008" y="226.9014">Gaslighting Logic</text><path d="M373.1,235.2031 L373.1,235.4834 L382.917,234.6507 L392.7339,235.4608 L402.5509,235.736 L412.3678,234.2519 L422.1848,235.0995 L432.0017,234.6345 L441.8187,234.6918 L451.6357,235.1122 L461.4526,234.2813 L471.2696,235.9413 L481.0865,234.3628 L490.9035,234.9394 L500.7205,235.7791 L510.5374,235.0888 L520.3544,235.2941 L530.1713,235.1605 L539.9883,235.4412 L549.8052,235.522 L559.6222,235.984 L569.4392,236.0979 L579.2561,236.1088 L589.0731,235.5426 L598.89,235.2031" fill="#E1BEE7" style="stroke:#7B1FA2;stroke-width:0.5;"/><g data-visibility-modifier="PUBLIC_FIELD"><polygon fill="none" points="386.1166,249.5813,385.6768,250.1821,385.1567,251.0622,384.4128,251.6553,383.6311,251.9796,383.0078,252.0078,382.2067,251.6022,381.4509,251.3372,380.8771,250.7992,380.5762,250.1832,380.3977,249.6928,380.2229,249.0522,379.9391,248.501,380.1572,247.9627,380.3482,247.3732,381.0653,246.9069,381.5697,246.3019,382.1941,246.101,382.9364,245.9279,383.8883,246.0307,384.4097,246.2766,385.0158,246.3881,385.7529,247.1432,386.0098,247.9404,386.1214,248.4843,385.995,249.3806" style="stroke:#038048;stroke-width:1;"/></g><text fill="#000000" font-family="'Comic Sans MS'" font-size="14" lengthAdjust="spacing" textLength="179.6348" x="392.1" y="252.1982">current_max_depth : wire</text><path d="M373.1,259.5 L373.1,259.7802 L382.917,258.9476 L392.7339,259.7577 L402.5509,260.0329 L412.3678,258.5488 L422.1848,259.3964 L432.0017,258.9313 L441.8187,258.9887 L451.6357,259.4091 L461.4526,258.5782 L471.2696,260.2382 L481.0865,258.6596 L490.9035,259.2363 L500.7205,260.0759 L510.5374,259.3856 L520.3544,259.591 L530.1713,259.4574 L539.9883,259.738 L549.8052,259.8188 L559.6222,260.2809 L569.4392,260.3947 L579.2561,260.4057 L589.0731,259.8395 L598.89,259.5" fill="#E1BEE7" style="stroke:#7B1FA2;stroke-width:1;"/><text fill="#000000" font-family="'Comic Sans MS'" font-size="14" lengthAdjust="spacing" textLength="112.6084" x="378.1" y="276.4951">The Gatekeeper</text><text fill="#000000" font-family="'Comic Sans MS'" font-size="14" lengthAdjust="spacing" textLength="215.79" x="378.1" y="292.792">Asserts FULL if Count &gt;= LFSR</text></g><!--class RAM--><g class="entity" data-entity="RAM" data-source-line="42" data-uid="ent0010" id="entity_RAM"><polygon fill="#BBDEFB" points="538.23,400.0975,538.23,400.3077,547.9516,399.6832,557.6731,400.2908,567.3947,400.4972,577.1162,399.3841,586.8378,400.0198,596.5593,399.671,606.2809,399.714,616.0025,400.0293,625.724,399.4061,635.4456,400.6511,645.1671,399.4672,654.8887,399.8997,664.6102,400.5294,674.3318,400.0117,684.0534,400.1657,693.7749,400.0975,693.7708,400.0877,694.1512,400.2989,694.5125,400.464,694.9103,400.7172,695.2747,400.8899,695.5427,400.8297,695.7519,400.9164,695.7676,401.2158,695.9783,401.596,696.1983,401.98,695.9064,402.152,696.2749,402.5975,696.9534,402.5975,695.9784,412.3019,696.8087,422.0064,695.7799,431.7108,696.2064,441.4152,697.0165,451.1196,696.2262,460.8241,696.3802,470.5285,696.6135,480.2329,696.6912,489.9373,696.271,499.6418,696.5621,509.3462,696.2749,519.0506,696.0986,518.9776,696.2161,519.4405,696.1509,519.8277,695.9725,520.168,695.8779,520.543,695.5427,520.8184,695.4811,520.6696,695.1059,520.764,694.7563,520.9199,694.4745,521.2396,694.1034,521.3437,693.7749,521.5506,693.7749,522.232,684.0534,521.3759,674.3318,521.2076,664.6102,521.7789,654.8887,520.8838,645.1671,521.0315,635.4456,522.1996,625.724,521.9863,616.0025,522.2851,606.2809,521.2288,596.5593,521.8698,586.8378,522.141,577.1162,521.0782,567.3947,521.4548,557.6731,521.6766,547.9516,522.2024,538.23,521.5506,538.2295,521.5493,537.9355,521.5466,537.4523,521.0872,537.0829,520.9027,536.88,521.1199,536.4622,520.8184,536.2414,520.7269,536.4725,520.5298,536.233,520.1376,535.9404,519.7236,535.7675,519.3591,535.73,519.0506,536.1888,519.0506,535.4307,509.3462,536.3219,499.6418,535.1773,489.9373,536.3474,480.2329,536.2143,470.5285,535.975,460.8241,535.7772,451.1196,536.4566,441.4152,536.3436,431.7108,535.8993,422.0064,535.9982,412.3019,535.73,402.5975,535.6899,402.5809,536.0971,402.3353,536.0706,401.9101,536.2225,401.5589,536.1284,401.1057,536.4622,400.8297,536.4105,400.7049,536.8835,400.8467,537.2242,400.6692,537.5174,400.3772,537.8354,400.1447,538.23,400.0975" style="stroke:#1976D2;stroke-width:0.5;"/><polygon fill="#ADD1B2" points="566.3844,422.9059,564.772,425.1091,562.8648,428.336,560.1372,430.5107,557.271,431.6999,554.9856,431.8031,552.0483,430.3159,549.2768,429.3442,547.1731,427.3715,546.0697,425.1131,545.4153,423.3148,544.7742,420.966,543.7336,418.9448,544.5332,416.9713,545.2338,414.8095,547.8629,413.0998,549.7126,410.8814,552.002,410.1448,554.7237,409.5104,558.214,409.8873,560.1257,410.7888,562.3483,411.1975,565.0508,413.9663,565.9929,416.8893,566.4022,418.8837,565.9386,422.1702" style="stroke:#181818;stroke-width:1;"/><path d="M558.2924,425.8709 Q557.7142,426.1678 557.0736,426.3084 Q556.433,426.4647 555.7299,426.4647 Q553.2299,426.4647 551.9017,424.8241 Q550.5892,423.1678 550.5892,420.0428 Q550.5892,416.9178 551.9017,415.2616 Q553.2299,413.6053 555.7299,413.6053 Q556.433,413.6053 557.0736,413.7616 Q557.7299,413.9178 558.2924,414.2147 L558.2924,416.9334 Q557.6674,416.3553 557.0736,416.0897 Q556.4799,415.8084 555.8549,415.8084 Q554.5111,415.8084 553.8236,416.8866 Q553.1361,417.9491 553.1361,420.0428 Q553.1361,422.1366 553.8236,423.2147 Q554.5111,424.2772 555.8549,424.2772 Q556.4799,424.2772 557.0736,424.0116 Q557.6674,423.7303 558.2924,423.1522 L558.2924,425.8709 Z " fill="#000000"/><text fill="#000000" font-family="Comic Sans MS" font-size="12" font-style="italic" lengthAdjust="spacing" textLength="44.1094" x="607.4582" y="416.2362">&#171;Mem&#187;</text><text fill="#000000" font-family="'Comic Sans MS'" font-size="14" lengthAdjust="spacing" textLength="118.3369" x="570.3444" y="432.0614">Physical Memory</text><path d="M536.73,440.3631 L536.73,440.6434 L546.6391,439.8107 L556.5481,440.6208 L566.4572,440.896 L576.3662,439.4119 L586.2753,440.2595 L596.1843,439.7945 L606.0934,439.8518 L616.0025,440.2722 L625.9115,439.4413 L635.8206,441.1013 L645.7296,439.5228 L655.6387,440.0994 L665.5477,440.9391 L675.4568,440.2488 L685.3659,440.4541 L695.2749,440.3631" fill="#BBDEFB" style="stroke:#1976D2;stroke-width:0.5;"/><g data-visibility-modifier="PUBLIC_FIELD"><polygon fill="none" points="549.7466,454.7413,549.3068,455.3421,548.7867,456.2222,548.0428,456.8153,547.2611,457.1396,546.6378,457.1678,545.8367,456.7622,545.0809,456.4972,544.5071,455.9592,544.2062,455.3432,544.0277,454.8528,543.8529,454.2122,543.5691,453.661,543.7872,453.1227,543.9782,452.5332,544.6953,452.0669,545.1997,451.4619,545.8241,451.261,546.5664,451.0879,547.5183,451.1907,548.0397,451.4366,548.6458,451.5481,549.3829,452.3032,549.6398,453.1004,549.7514,453.6443,549.625,454.5406" style="stroke:#038048;stroke-width:1;"/></g><text fill="#000000" font-family="'Comic Sans MS'" font-size="14" lengthAdjust="spacing" textLength="134.5449" x="555.73" y="457.3582">mem : 2048 x 8-bit</text><g data-visibility-modifier="PUBLIC_FIELD"><polygon fill="none" points="549.7466,471.0382,549.3068,471.639,548.7867,472.5191,548.0428,473.1122,547.2611,473.4365,546.6378,473.4647,545.8367,473.059,545.0809,472.7941,544.5071,472.256,544.2062,471.6401,544.0277,471.1497,543.8529,470.5091,543.5691,469.9578,543.7872,469.4196,543.9782,468.83,544.6953,468.3637,545.1997,467.7587,545.8241,467.5578,546.5664,467.3848,547.5183,467.4876,548.0397,467.7335,548.6458,467.8449,549.3829,468.6001,549.6398,469.3972,549.7514,469.9412,549.625,470.8375" style="stroke:#038048;stroke-width:1;"/></g><text fill="#000000" font-family="'Comic Sans MS'" font-size="14" lengthAdjust="spacing" textLength="123.1836" x="555.73" y="473.6551">count : reg [11:0]</text><path d="M536.73,480.9569 L536.73,481.2371 L546.6391,480.4044 L556.5481,481.2146 L566.4572,481.4898 L576.3662,480.0057 L586.2753,480.8533 L596.1843,480.3882 L606.0934,480.4455 L616.0025,480.866 L625.9115,480.035 L635.8206,481.6951 L645.7296,480.1165 L655.6387,480.6932 L665.5477,481.5328 L675.4568,480.8425 L685.3659,481.0479 L695.2749,480.9569" fill="#BBDEFB" style="stroke:#1976D2;stroke-width:1;"/><text fill="#000000" font-family="'Comic Sans MS'" font-size="14" lengthAdjust="spacing" textLength="103.332" x="541.73" y="497.952">Actual Storage</text><text fill="#000000" font-family="'Comic Sans MS'" font-size="14" lengthAdjust="spacing" textLength="146.918" x="541.73" y="514.2489">Standard Ring Buffer</text></g><!--entity UI--><g class="entity" data-entity="UI" data-source-line="52" data-uid="ent0011" id="entity_UI"><polygon fill="#F1F1F1" points="494.0442,89.8834,492.8715,91.4857,491.4845,93.8326,489.5008,95.4142,487.4163,96.279,485.7542,96.3541,483.618,95.2724,481.6023,94.5658,480.0724,93.1311,479.2699,91.4886,478.7939,90.1808,478.3277,88.4726,477.5709,87.0026,478.1525,85.5673,478.662,83.9951,480.574,82.7517,481.9192,81.1383,483.5843,80.6025,485.5637,80.1412,488.1021,80.4153,489.4924,81.071,491.1089,81.3682,493.0743,83.3818,493.7595,85.5076,494.0571,86.9581,493.72,89.3483" style="stroke:#181818;stroke-width:0.5;"/><text fill="#000000" font-family="'Comic Sans MS'" font-size="14" lengthAdjust="spacing" textLength="99.0391" x="436.4805" y="117.9326">User Interface</text></g><!--link UI to LFSR--><g class="link" data-entity-1="UI" data-entity-2="LFSR" data-source-line="55" data-uid="lnk12" id="link_UI_LFSR"><path d="M476.69,89.8075 L476.7003,89.9003 L474.2377,89.8953 L471.8358,90.4346 L469.414,90.7966 L466.9274,90.5758 L464.5306,91.1618 L464.5262,91.1275 L461.2819,91.3941 L458.0601,91.8334 L454.854,92.3927 L451.5939,92.5384 L448.4094,93.2634 L448.4465,93.5067 L444.513,93.5755 L440.688,94.3545 L436.8762,95.2202 L432.9874,95.5817 L429.1391,96.2084 L429.1442,96.2383 L427.0242,96.5581 L424.9277,97.0141 L422.8199,97.4043 L420.7336,97.9199 L418.577,98.0271 L418.6318,98.3202 L416.4236,98.7369 L414.18,98.9645 L411.9882,99.4689 L409.7988,99.9862 L407.5325,100.0925 L407.4686,99.7784 L405.3075,100.8528 L402.9361,100.893 L400.7246,101.7195 L398.3483,101.7363 L396.1071,102.4167 L396.1005,102.387 L393.8375,103.2575 L391.4206,103.4335 L389.0945,104.0193 L386.776,104.6396 L384.4025,105.0116 L384.446,105.1914 L382.0256,105.5854 L379.6796,106.2867 L377.2132,106.4909 L374.9264,107.4366 L372.5202,107.8892 L372.5827,108.1247 L370.1792,108.7147 L367.8067,109.4215 L365.2902,109.5851 L362.8792,110.1469 L360.5619,111.0616 L360.4846,110.7964 L358.168,111.7322 L355.7643,112.3693 L353.487,113.4397 L350.9939,113.7702 L348.6291,114.5406 L348.5824,114.3954 L346.299,115.3967 L343.8161,115.7775 L341.475,116.5995 L339.2729,117.8533 L336.8234,118.3382 L336.8885,118.5206 L334.6177,119.4714 L332.1446,119.8549 L329.925,120.9489 L327.6501,121.8881 L325.2465,122.4666 L325.169,122.2715 L322.9815,123.3212 L320.7686,124.307 L318.6056,125.4183 L316.2486,126.0416 L314,126.9375 L314.0833,127.1255 L310.8551,128.0619 L307.7877,129.3612 L304.9552,131.1905 L301.6902,132.044 L298.7742,133.6848 L298.8732,133.8881 L295.8448,135.214 L292.7828,136.4711 L289.7965,137.8834 L286.9851,139.6548 L283.9262,140.9181 L283.864,140.8005 L281.1543,142.6823 L278.0215,143.7642 L275.3699,145.7555 L272.4473,147.2348 L269.4517,148.5762 L269.5056,148.6708 L266.641,150.1987 L263.9692,152.0654 L261.1233,153.626 L258.2046,155.0587 L255.3464,156.5975 L255.4081,156.6995 L252.5682,158.2127 L250.0151,160.1992 L247.1376,161.6503 L244.3936,163.3217 L241.6057,164.9207 L241.4599,164.693 L238.8325,166.4818 L236.3807,168.5449 L233.6804,170.2198 L230.8911,171.7556 L228.2253,173.4844 L228.1455,173.3655 L225.5662,175.1522 L222.8455,176.7283 L220.5133,178.8831 L217.9889,180.7515 L215.2008,182.2272 L215.3348,182.4189 L212.8431,184.2524 L210.0967,185.7215 L207.6192,187.5752 L204.9636,189.1743 L202.5277,191.0876" fill="none" style="stroke:#181818;stroke-width:1;"/><polygon fill="#181818" points="197.64,194.5675,197.654,194.6362,199.5428,194.0399,201.5135,193.8461,203.4575,193.5212,205.3139,192.7653,207.2916,192.6061,207.2873,192.5806,206.1523,192.2782,205.039,192.1046,203.9407,192.0206,202.7906,191.628,201.7131,191.6676,201.8951,191.6982,201.6936,190.517,202.0235,189.4252,202.4182,188.3444,202.4358,187.2,202.6517,186.0891,202.6712,186.1007,201.6402,187.7794,200.6982,189.5107,199.7133,191.2167,198.8104,192.9712,197.64,194.5675" style="stroke:#181818;stroke-width:1;"/><text fill="#000000" font-family="'Comic Sans MS'" font-size="13" lengthAdjust="spacing" textLength="162.9824" x="315" y="140.0044">Trigger (Access Attempt)</text></g><!--link LFSR to Logic--><g class="link" data-entity-1="LFSR" data-entity-2="Logic" data-source-line="56" data-uid="lnk13" id="link_LFSR_Logic"><path d="M238.48,247.5175 L238.48,247.7977 L248.2738,246.9651 L258.0677,247.7752 L267.8615,248.0504 L277.6554,246.5663 L287.4492,247.4139 L297.2431,246.9488 L307.0369,247.0062 L316.8308,247.4266 L326.6246,246.5957 L336.4185,248.2557 L346.2123,246.6771 L356.0062,247.2538 L365.8,247.5175" fill="none" style="stroke:#181818;stroke-width:1;"/><polygon fill="#181818" points="371.8,247.5175,371.8285,247.5815,369.9439,246.5913,368.2262,245.9764,366.4541,245.2392,364.5034,244.1002,362.8,243.5175,362.7817,243.4992,363.4995,244.217,364.3096,245.0271,365.1839,245.9014,365.837,246.5545,366.8,247.5175,366.9305,247.648,365.8514,248.1689,365.1534,249.0709,364.5018,250.0193,363.5798,250.6973,362.8,251.5175,362.8092,251.5383,364.5957,250.7078,366.4242,249.9719,368.2324,249.1903,370.0793,248.4959,371.8,247.5175" style="stroke:#181818;stroke-width:1;"/><text fill="#000000" font-family="'Comic Sans MS'" font-size="13" lengthAdjust="spacing" textLength="97.8364" x="256.73" y="240.5844">Random Depth</text></g><!--reverse link Logic to RAM--><g class="link" data-entity-1="Logic" data-entity-2="RAM" data-source-line="57" data-uid="lnk15" id="link_Logic_RAM"><path d="M521.1135,305.5881 L521.3522,305.7349 L525.9136,313.8658 L531.8742,322.8576 L537.3792,331.569 L541.3857,339.3586 L547.3782,348.3699 L552.2527,356.6934 L557.5721,365.2907 L563.2008,374.0782 L567.7637,382.21 L574.4481,391.6471 L579.09,399.8275" fill="none" style="stroke:#181818;stroke-width:1;"/><polygon fill="#181818" points="517.97,300.4775,518.0394,300.4868,518.0948,302.4115,518.5572,304.3907,518.887,306.3521,518.7809,308.2552,519.2783,310.2391,519.2531,310.2331,519.4022,309.1056,519.6784,308.0083,520.043,306.9322,520.1032,305.7835,520.5896,304.7363,520.6324,304.9158,521.6415,304.7942,522.7754,305.1967,523.9246,305.6632,524.9852,305.7576,526.0924,306.0477,526.1052,306.0665,524.4619,304.9249,522.8771,303.8687,521.264,302.7713,519.7049,301.7525,517.97,300.4775" style="stroke:#181818;stroke-width:1;"/><text fill="#000000" font-family="'Comic Sans MS'" font-size="13" lengthAdjust="spacing" textLength="83.6938" x="549" y="345.1644">Actual Count</text></g><!--reverse link UI to Logic--><g class="link" data-entity-1="UI" data-entity-2="Logic" data-source-line="59" data-uid="lnk17" id="link_UI_Logic"><path d="M486,103.4075 L486.2802,103.4075 L485.4476,113.5364 L486.2577,123.6653 L486.5329,133.7942 L485.0488,143.9231 L485.8964,154.0519 L485.4313,164.1808 L485.4887,174.3097 L485.9091,184.4386 L486,194.5675" fill="none" style="stroke:#181818;stroke-width:1;"/><polygon fill="#181818" points="486,97.4075,486.064,97.436,485.0738,99.1514,484.4589,101.0337,483.7217,102.8616,482.5827,104.5109,482,106.4075,481.9817,106.3892,482.6995,105.507,483.5096,104.7171,484.3839,103.9914,485.037,103.0445,486,102.4075,486.1305,102.538,486.6514,103.0589,487.5534,103.9609,488.5018,104.9093,489.1798,105.5873,490,106.4075,490.0208,106.4167,489.1903,104.6032,488.4544,102.8317,487.6728,101.0399,486.9784,99.2868,486,97.4075" style="stroke:#181818;stroke-width:1;"/><text fill="#000000" font-family="'Comic Sans MS'" font-size="13" lengthAdjust="spacing" textLength="98.1284" x="487" y="140.0044">FULL! (The Lie)</text></g><!--link UI to RAM--><g class="link" data-entity-1="UI" data-entity-2="RAM" data-source-line="60" data-uid="lnk18" id="link_UI_RAM"><path d="M495.33,89.7075 L495.3419,89.8002 L497.6574,89.8261 L500.0426,90.3952 L502.405,90.7874 L504.693,90.598 L507.0841,91.2137 L507.078,91.1797 L510.0505,91.5616 L513.0534,92.1149 L516.0776,92.7873 L519.0287,93.0491 L522.0822,93.8861 L522.1403,94.1252 L525.4352,94.4442 L528.8997,95.4613 L532.3849,96.5636 L535.7498,97.1703 L539.1779,98.0376 L539.1874,98.0664 L542.7829,99.2128 L546.4216,100.4904 L550.0394,101.7047 L553.697,103.0398 L557.225,103.9813 L557.3476,104.2531 L560.9195,105.8662 L564.4123,107.3039 L568.0209,108.9984 L571.6349,110.7048 L575.0771,112.0301 L574.9055,111.7593 L578.5407,114.3781 L581.6108,116.1055 L585.1105,118.5106 L588.1679,120.2178 L591.5878,122.497 L591.5669,122.4749 L594.6183,125.3767 L597.1822,127.7605 L600.0337,130.45 L602.9094,133.1651 L605.6109,135.6952 L605.7667,135.7949 L607.6873,138.9427 L609.8741,142.2609 L611.63,145.3035 L614.0287,148.7571 L616,151.9375 L616.2225,152.0367 L617.471,154.9141 L618.83,157.8408 L619.6755,160.5388 L620.8975,163.4044 L622.4528,166.4186 L622.1978,166.3126 L623.5463,169.0969 L624.6076,171.7618 L626.0856,174.6 L626.852,177.1423 L628.0414,179.8605 L627.8988,179.8064 L629.0902,182.4092 L629.6723,184.7807 L630.6876,187.3168 L632.127,190.0138 L632.8113,192.4241 L632.9948,192.486 L633.9199,194.8978 L634.2745,197.117 L635.3437,199.5774 L636.2573,201.9852 L636.808,204.2706 L636.6063,204.2122 L637.4208,206.5168 L638.1693,208.8023 L639.0475,211.1254 L639.4213,213.3024 L640.0768,215.5609 L640.2769,215.6084 L640.3547,217.6831 L640.8186,219.8495 L641.8465,222.1497 L641.836,224.2035 L642.6634,226.4561 L642.8859,226.4968 L643.1436,228.6048 L643.3261,230.6991 L643.6785,232.8244 L644.4237,235.0216 L644.613,237.1171 L644.4811,237.1002 L645.1456,239.2682 L644.9127,241.321 L645.7001,243.5048 L645.9131,245.6148 L645.9713,247.705 L646.0798,247.7133 L646.1546,249.8417 L646.6182,251.9998 L646.7305,254.1312 L646.6961,256.2513 L646.7835,258.3808 L646.9026,258.3842 L646.788,260.5641 L647.2265,262.7597 L647.0393,264.9376 L647.1095,267.1227 L647.0952,269.3055 L646.8249,269.302 L646.8865,271.5701 L647.2737,273.8423 L647.2002,276.1086 L646.9615,278.3729 L646.9519,280.6401 L646.8088,280.6334 L646.7441,283.0167 L646.426,285.3881 L646.8042,287.792 L646.8378,290.1798 L646.3989,292.5456 L646.6322,292.5626 L646.5235,295.0955 L645.9714,297.5962 L645.8873,300.1309 L645.4934,302.6432 L645.4818,305.1831 L645.6075,305.1946 L645.3438,307.8992 L645.2319,310.6176 L644.6386,313.2921 L644.4336,316.0021 L644.246,318.7136 L644.4419,318.7345 L643.8475,324.8172 L642.7211,330.843 L642.2127,336.9348 L641.7152,343.0278 L641,349.0975 L640.7306,349.0642 L640.867,351.4511 L640.536,353.7802 L640.0889,356.095 L639.9072,358.4426 L639.5556,360.7691 L639.8757,360.8181 L639.0885,362.9004 L639.0346,365.0949 L638.692,367.2453 L638.2877,369.3861 L637.9072,371.5306 L637.9687,371.5421 L637.5592,373.6817 L636.8393,375.7636 L636.5393,377.9236 L636.1152,380.0604 L635.9193,382.2397 L635.9471,382.2456 L635.4651,384.5507 L635.0046,386.8604 L634.3154,389.1211 L633.92,391.4447 L633.4568,393.7538" fill="none" style="stroke:#181818;stroke-width:1;"/><polygon fill="#181818" points="632.14,399.6075,632.1962,399.6493,633.2047,397.9445,634.5428,396.4849,635.7735,394.9454,636.6514,393.1434,638.0177,391.7048,638.0039,391.6829,636.9856,392.1896,636.0372,392.8066,635.1373,393.5004,634.0702,393.9297,633.2373,394.7294,633.3933,394.8281,632.4549,393.661,631.9718,392.782,631.5443,391.9382,630.7935,390.8898,630.2127,389.949,630.2351,389.9535,630.5878,391.8787,631.042,393.8241,631.4473,395.7597,631.946,397.714,632.14,399.6075" style="stroke:#181818;stroke-width:1;"/><text fill="#000000" font-family="'Comic Sans MS'" font-size="13" lengthAdjust="spacing" textLength="167.2734" x="648" y="252.0844">Write Data (Only if !FULL)</text></g><g class="footer" data-source-line="62"><text fill="#888888" font-family="'Comic Sans MS'" font-size="10" lengthAdjust="spacing" textLength="138.9063" x="335.1836" y="552.8297">It's not a bug, it's a feature.</text></g><!--SRC=[TLJRJjj047ttLmpk0qIjAKwhGYCQAObZ52aKb13nK1Mqs6DxXRrhxQvBeef_x-mcE25GF_YoSprdZaS_Sb4pnIeec4YV53S61HZLeATRKoM5J0ebAuICbNhNf0kMogVzW1GprfGcbiByP1JbZsJ54vWpeU5oxdlU8SpDgkGYXr79j4Qz4vpO4_Zh0Lr3bZpcIZOY7SbIglFpKS6axlVXGnoFegYxTf8gHRNl47tfnjtu_InJcVF4Eet3uNXy-ZPBwt0w3ED1z_qibrXPb-4m6iV3jpasvl3xwJTgzDdp33SbSN5J85mmNVAyC9Q1U19VmK0b1JUOc4OXyLDJBPPRuYmSY6J5k80Z6phbsF4tzAofygVnV0PZaNE1FZ0DxdjBnThNNX-XpBIwLvX33-pzLtZIE_dTseEWVRr0WOePrE3IjEVNibm9cYOhUx2y2qFAkRphqZrqBWJJFeGq20_I65c1p5n3RGOBOYuRbQ0rtQZ65ArjKQUkfXI0Vr2jOFRvbiJ5ynpLiVD2aRhibj2M9JUkLooDHIQfWjgdQfTu5xKcpCLlnxxBMD8eXSBSLsnvds9j2gBkYIjyZxJrQ0q-8jQeskC1ALmP3V5YEWMUmOX4PA3_OylByoiuryLAyuILC4DMShDQGt9CxUDfNKbjKgqScjdW4bxajukamefwxvvyFOCbd0KFtEp2T3szg2ByZoe6950gDZTIKQVjyTpGyc0gXPdbTTXasGQzmtK84MQaJPW8WofZD7XSrYLFw7zOUKSTy1V4pzRgG2mcDd269JDS2btmMdkB2GIqRKJGNqkyHvmuQS3H84cG-1ZG-gfgq_6SFL1srDRRpRS7CsgJ51dPCNgMfg2fTymRT6uydhS-3KhCR0ggtNC3FDZ-XgwXbnesNGzkQOCYHCmmEBeIvSgE-y26TJmlGOiGCYdjmv-OGssb30mUclmJSFlD84Dcby2n_my0]--></g></svg>